<svg width="193px" height="193px" viewBox="0 0 24.00 24.00" fill="none" xmlns="http://www.w3.org/2000/svg" stroke="#FFDD35"><g id="SVGRepo_bgCarrier" stroke-width="0"></g><g id="SVGRepo_tracerCarrier" stroke-linecap="round" stroke-linejoin="round" stroke="#FFDD35" stroke-width="0.4800000000000001"> <path opacity="0.4" d="M12.3691 8.87988H17.6191" stroke="#41D1FF" stroke-width="1.5" stroke-linecap="round" stroke-linejoin="round"></path> <path opacity="0.4" d="M6.38086 8.87988L7.13086 9.62988L9.38086 7.37988" stroke="#41D1FF" stroke-width="1.5" stroke-linecap="round" stroke-linejoin="round"></path> <path opacity="0.4" d="M12.3691 15.8799H17.6191" stroke="#41D1FF" stroke-width="1.5" stroke-linecap="round" stroke-linejoin="round"></path> <path opacity="0.4" d="M6.38086 15.8799L7.13086 16.6299L9.38086 14.3799" stroke="#41D1FF" stroke-width="1.5" stroke-linecap="round" stroke-linejoin="round"></path> <path d="M9 22H15C20 22 22 20 22 15V9C22 4 20 2 15 2H9C4 2 2 4 2 9V15C2 20 4 22 9 22Z" stroke="#41D1FF" stroke-width="1.5" stroke-linecap="round" stroke-linejoin="round"></path> </g><g id="SVGRepo_iconCarrier"> <path opacity="0.4" d="M12.3691 8.87988H17.6191" stroke="#41D1FF" stroke-width="1.5" stroke-linecap="round" stroke-linejoin="round"></path> <path opacity="0.4" d="M6.38086 8.87988L7.13086 9.62988L9.38086 7.37988" stroke="#41D1FF" stroke-width="1.5" stroke-linecap="round" stroke-linejoin="round"></path> <path opacity="0.4" d="M12.3691 15.8799H17.6191" stroke="#41D1FF" stroke-width="1.5" stroke-linecap="round" stroke-linejoin="round"></path> <path opacity="0.4" d="M6.38086 15.8799L7.13086 16.6299L9.38086 14.3799" stroke="#41D1FF" stroke-width="1.5" stroke-linecap="round" stroke-linejoin="round"></path> <path d="M9 22H15C20 22 22 20 22 15V9C22 4 20 2 15 2H9C4 2 2 4 2 9V15C2 20 4 22 9 22Z" stroke="#41D1FF" stroke-width="1.5" stroke-linecap="round" stroke-linejoin="round"></path> </g></svg>